<mxfile host="app.diagrams.net" modified="2021-06-01T11:23:08.286Z" agent="5.0 (Windows NT 10.0; WOW64) AppleWebKit/537.36 (KHTML, like Gecko) Chrome/90.0.4430.93 Safari/537.36 OPR/76.0.4017.123" etag="x9ifwDa7tDlvT8zbR8DO" version="14.7.3" type="github">
  <diagram id="x6lxmjkwG_VmmXBO_yBS" name="Page-1">
    <mxGraphModel dx="2105" dy="1717" grid="1" gridSize="10" guides="1" tooltips="1" connect="1" arrows="1" fold="1" page="1" pageScale="1" pageWidth="827" pageHeight="1169" math="0" shadow="0">
      <root>
        <mxCell id="0" />
        <mxCell id="1" parent="0" />
        <mxCell id="5IPAmnX3tbD5AaJGGD7y-7" value="" style="edgeStyle=orthogonalEdgeStyle;rounded=0;orthogonalLoop=1;jettySize=auto;html=1;" parent="1" target="5IPAmnX3tbD5AaJGGD7y-6" edge="1">
          <mxGeometry relative="1" as="geometry">
            <mxPoint x="240" y="120" as="sourcePoint" />
          </mxGeometry>
        </mxCell>
        <mxCell id="5IPAmnX3tbD5AaJGGD7y-14" value="" style="edgeStyle=orthogonalEdgeStyle;rounded=0;orthogonalLoop=1;jettySize=auto;html=1;" parent="1" source="5IPAmnX3tbD5AaJGGD7y-6" target="5IPAmnX3tbD5AaJGGD7y-13" edge="1">
          <mxGeometry relative="1" as="geometry" />
        </mxCell>
        <mxCell id="5IPAmnX3tbD5AaJGGD7y-6" value="安检机" style="whiteSpace=wrap;html=1;rounded=0;" parent="1" vertex="1">
          <mxGeometry x="320" y="90" width="120" height="60" as="geometry" />
        </mxCell>
        <mxCell id="5IPAmnX3tbD5AaJGGD7y-10" value="包裹" style="rounded=1;whiteSpace=wrap;html=1;" parent="1" vertex="1">
          <mxGeometry x="240" y="80" width="40" height="30" as="geometry" />
        </mxCell>
        <mxCell id="5IPAmnX3tbD5AaJGGD7y-11" value="" style="line;strokeWidth=2;direction=south;html=1;" parent="1" vertex="1">
          <mxGeometry x="290" y="-80" width="10" height="160" as="geometry" />
        </mxCell>
        <mxCell id="5IPAmnX3tbD5AaJGGD7y-12" value="摄像头" style="rounded=1;whiteSpace=wrap;html=1;" parent="1" vertex="1">
          <mxGeometry x="240" y="-80" width="120" height="60" as="geometry" />
        </mxCell>
        <mxCell id="5IPAmnX3tbD5AaJGGD7y-16" value="" style="edgeStyle=orthogonalEdgeStyle;rounded=0;orthogonalLoop=1;jettySize=auto;html=1;" parent="1" source="5IPAmnX3tbD5AaJGGD7y-13" target="5IPAmnX3tbD5AaJGGD7y-15" edge="1">
          <mxGeometry relative="1" as="geometry" />
        </mxCell>
        <mxCell id="s7Kld0D2YZcdkNJESkhU-4" style="edgeStyle=orthogonalEdgeStyle;rounded=0;orthogonalLoop=1;jettySize=auto;html=1;exitX=1;exitY=1;exitDx=0;exitDy=0;" edge="1" parent="1" source="5IPAmnX3tbD5AaJGGD7y-13" target="s7Kld0D2YZcdkNJESkhU-2">
          <mxGeometry relative="1" as="geometry">
            <Array as="points">
              <mxPoint x="620" y="150" />
              <mxPoint x="620" y="190" />
              <mxPoint x="780" y="190" />
            </Array>
          </mxGeometry>
        </mxCell>
        <mxCell id="5IPAmnX3tbD5AaJGGD7y-13" value="安检服务系统(1)" style="whiteSpace=wrap;html=1;rounded=0;" parent="1" vertex="1">
          <mxGeometry x="520" y="90" width="120" height="60" as="geometry" />
        </mxCell>
        <mxCell id="5IPAmnX3tbD5AaJGGD7y-18" value="" style="edgeStyle=orthogonalEdgeStyle;rounded=0;orthogonalLoop=1;jettySize=auto;html=1;" parent="1" source="5IPAmnX3tbD5AaJGGD7y-15" target="5IPAmnX3tbD5AaJGGD7y-17" edge="1">
          <mxGeometry relative="1" as="geometry" />
        </mxCell>
        <mxCell id="5IPAmnX3tbD5AaJGGD7y-15" value="智能审图/人工审图" style="whiteSpace=wrap;html=1;rounded=0;" parent="1" vertex="1">
          <mxGeometry x="520" y="230" width="120" height="60" as="geometry" />
        </mxCell>
        <mxCell id="Wvsp08vH7izlKJjOjpL_-2" value="" style="edgeStyle=orthogonalEdgeStyle;rounded=0;orthogonalLoop=1;jettySize=auto;html=1;" parent="1" source="5IPAmnX3tbD5AaJGGD7y-17" target="Wvsp08vH7izlKJjOjpL_-1" edge="1">
          <mxGeometry relative="1" as="geometry" />
        </mxCell>
        <mxCell id="5IPAmnX3tbD5AaJGGD7y-17" value="矩阵分拣系统" style="whiteSpace=wrap;html=1;rounded=0;" parent="1" vertex="1">
          <mxGeometry x="520" y="370" width="120" height="60" as="geometry" />
        </mxCell>
        <mxCell id="5IPAmnX3tbD5AaJGGD7y-20" value="拍照包裹图和条码图&lt;span&gt;（目前了解的情况&lt;/span&gt;&lt;br&gt;&lt;span&gt;，条码和图片是两个接口）&lt;/span&gt;" style="text;html=1;strokeColor=none;fillColor=none;align=center;verticalAlign=middle;whiteSpace=wrap;rounded=0;" parent="1" vertex="1">
          <mxGeometry x="380" y="-60" width="240" height="10" as="geometry" />
        </mxCell>
        <mxCell id="Wvsp08vH7izlKJjOjpL_-5" value="" style="edgeStyle=orthogonalEdgeStyle;rounded=0;orthogonalLoop=1;jettySize=auto;html=1;" parent="1" source="Wvsp08vH7izlKJjOjpL_-1" edge="1">
          <mxGeometry relative="1" as="geometry">
            <mxPoint x="580" y="670" as="targetPoint" />
          </mxGeometry>
        </mxCell>
        <mxCell id="Wvsp08vH7izlKJjOjpL_-7" value="" style="edgeStyle=orthogonalEdgeStyle;rounded=0;orthogonalLoop=1;jettySize=auto;html=1;" parent="1" source="Wvsp08vH7izlKJjOjpL_-1" edge="1">
          <mxGeometry relative="1" as="geometry">
            <mxPoint x="680" y="540" as="targetPoint" />
          </mxGeometry>
        </mxCell>
        <mxCell id="Wvsp08vH7izlKJjOjpL_-1" value="是否落格" style="rhombus;whiteSpace=wrap;html=1;rounded=0;" parent="1" vertex="1">
          <mxGeometry x="540" y="500" width="80" height="80" as="geometry" />
        </mxCell>
        <mxCell id="Wvsp08vH7izlKJjOjpL_-3" value="落格指令" style="text;html=1;align=center;verticalAlign=middle;resizable=0;points=[];autosize=1;strokeColor=none;" parent="1" vertex="1">
          <mxGeometry x="590" y="310" width="60" height="20" as="geometry" />
        </mxCell>
        <mxCell id="Wvsp08vH7izlKJjOjpL_-8" value="是" style="text;html=1;strokeColor=none;fillColor=none;align=center;verticalAlign=middle;whiteSpace=wrap;rounded=0;" parent="1" vertex="1">
          <mxGeometry x="530" y="610" width="40" height="20" as="geometry" />
        </mxCell>
        <mxCell id="Wvsp08vH7izlKJjOjpL_-9" value="否" style="text;html=1;align=center;verticalAlign=middle;resizable=0;points=[];autosize=1;strokeColor=none;" parent="1" vertex="1">
          <mxGeometry x="625" y="510" width="30" height="20" as="geometry" />
        </mxCell>
        <mxCell id="Wvsp08vH7izlKJjOjpL_-10" value="结束" style="ellipse;whiteSpace=wrap;html=1;aspect=fixed;" parent="1" vertex="1">
          <mxGeometry x="680" y="510" width="70" height="70" as="geometry" />
        </mxCell>
        <mxCell id="Wvsp08vH7izlKJjOjpL_-11" value="结束" style="ellipse;whiteSpace=wrap;html=1;aspect=fixed;" parent="1" vertex="1">
          <mxGeometry x="545" y="670" width="70" height="70" as="geometry" />
        </mxCell>
        <mxCell id="s7Kld0D2YZcdkNJESkhU-1" value="&lt;span style=&quot;color: rgb(0, 0, 0); font-family: helvetica; font-size: 12px; font-style: normal; font-weight: 400; letter-spacing: normal; text-align: center; text-indent: 0px; text-transform: none; word-spacing: 0px; background-color: rgb(248, 249, 250); display: inline; float: none;&quot;&gt;x光图片和条码，包裹图片进行绑定发送到安检服务系统&lt;/span&gt;" style="text;whiteSpace=wrap;html=1;" vertex="1" parent="1">
          <mxGeometry x="660" y="100" width="320" height="30" as="geometry" />
        </mxCell>
        <mxCell id="s7Kld0D2YZcdkNJESkhU-2" value="大屏展示" style="whiteSpace=wrap;html=1;rounded=0;" vertex="1" parent="1">
          <mxGeometry x="720" y="230" width="120" height="60" as="geometry" />
        </mxCell>
        <mxCell id="s7Kld0D2YZcdkNJESkhU-7" value="" style="edgeStyle=orthogonalEdgeStyle;rounded=0;orthogonalLoop=1;jettySize=auto;html=1;" edge="1" parent="1" source="s7Kld0D2YZcdkNJESkhU-5">
          <mxGeometry relative="1" as="geometry">
            <mxPoint x="130" y="840" as="targetPoint" />
          </mxGeometry>
        </mxCell>
        <mxCell id="s7Kld0D2YZcdkNJESkhU-5" value="（1）图码绑定业务（以图为参考对象，对匹配条码）" style="text;html=1;align=center;verticalAlign=middle;resizable=0;points=[];autosize=1;strokeColor=none;" vertex="1" parent="1">
          <mxGeometry x="-20" y="770" width="300" height="20" as="geometry" />
        </mxCell>
        <mxCell id="s7Kld0D2YZcdkNJESkhU-9" value="有图无码" style="rounded=0;whiteSpace=wrap;html=1;" vertex="1" parent="1">
          <mxGeometry x="20" y="840" width="120" height="60" as="geometry" />
        </mxCell>
        <mxCell id="s7Kld0D2YZcdkNJESkhU-10" value="有码无图" style="rounded=0;whiteSpace=wrap;html=1;" vertex="1" parent="1">
          <mxGeometry x="190" y="840" width="120" height="60" as="geometry" />
        </mxCell>
        <mxCell id="s7Kld0D2YZcdkNJESkhU-11" value="无码无图(暂不考虑)" style="rounded=0;whiteSpace=wrap;html=1;" vertex="1" parent="1">
          <mxGeometry x="350" y="840" width="120" height="60" as="geometry" />
        </mxCell>
      </root>
    </mxGraphModel>
  </diagram>
</mxfile>
